# xmcd CD database file
#
# Track frame offsets:
#	150
#	14187
#	26155
#	38345
#	47007
#	53575
#	63785
#	78375
#	83925
#	93615
#	103892
#	113900
#	123747
#	138075
#	146350
#	157485
#	165852
#	173922
#	182497
#	193162
#	222270
#
# Disc length: 4440 seconds
#
# Revision: 0
# Processed by: cddbd v1.5.1PL0 Copyright (c) Steve Scherf et al.
# Submitted via: CDex 1.51
#
DISCID=24115615
DTITLE=千住明 - 仔犬のワルツ
DYEAR=2004
DGENRE=JPop
TTITLE0=GLORIA? 希望の光?
TTITLE1=あなたがいてくれた
TTITLE2=雲に隠れた月
TTITLE3=悪魔のあやつり人形
TTITLE4=葉音とワルツ
TTITLE5=月光の影
TTITLE6=GLORIA? 希望の光?(Strings Quartet ver.)
TTITLE7=深夜のマネキン
TTITLE8=ピアノと赤いクツ
TTITLE9=水無月家の人々
TTITLE10=優しいマント
TTITLE11=銀色の指揮棒
TTITLE12=GLORIA? 希望の光?(Soft ver.)
TTITLE13=画鋲の鍵盤
TTITLE14=暗闇の真実
TTITLE15=仔犬のワルツ
TTITLE16=スペードのエース
TTITLE17=僕を信じてくれるなら
TTITLE18=だって 生きてかなくちゃ(Harmonica ver.)
TTITLE19=GLORIA? 希望の光?(Orchestra ver.)
TTITLE20=data
EXTD=YEAR: 2004
EXTT0=
EXTT1=
EXTT2=
EXTT3=
EXTT4=
EXTT5=
EXTT6=
EXTT7=
EXTT8=
EXTT9=
EXTT10=
EXTT11=
EXTT12=
EXTT13=
EXTT14=
EXTT15=
EXTT16=
EXTT17=
EXTT18=
EXTT19=
EXTT20=
PLAYORDER=
